<svg width="251" height="154" viewBox="0 0 251 154" fill="none" xmlns="http://www.w3.org/2000/svg">
<path d="M1 0V93.1V99.08V153.07H250.45V99.08V93.1V0H1Z" fill="#38B48C"/>
<g opacity="0.5">
<path d="M83.34 75.74C83.84 76.33 84.54 76.75 85.32 76.94C83.98 79.35 81.41 80.99 78.46 80.99C74.15 80.99 70.64 77.5 70.64 73.17C70.64 68.84 74.15 65.35 78.46 65.35C81.41 65.35 83.98 66.98 85.32 69.4C84.54 69.59 83.84 70.01 83.34 70.6C82.73 71.29 82.37 72.18 82.37 73.17C82.37 74.16 82.73 75.05 83.34 75.74Z" fill="white"/>
</g>
<path d="M83.3401 70.59C82.7301 71.28 82.3701 72.17 82.3701 73.16C82.3701 74.15 82.7301 75.04 83.3401 75.73C82.0501 75.57 81.0601 74.48 81.0601 73.16C81.0601 71.84 82.0501 70.75 83.3401 70.59Z" fill="white"/>
<path d="M101.93 73.16C101.93 77.49 98.42 80.98 94.11 80.98C91.16 80.98 88.62 79.35 87.28 76.93C88.96 76.5 90.2 74.97 90.2 73.16C90.2 71.35 88.97 69.82 87.28 69.39C88.62 66.99 91.15 65.34 94.11 65.34C98.42 65.34 101.93 68.85 101.93 73.16Z" fill="white"/>
<path d="M110.83 59.92H106.49V80.99H110.83V59.92Z" fill="white"/>
<path d="M119.73 76.64H106.48V80.98H119.73V76.64Z" fill="white"/>
<path d="M124.51 59.92C125.71 59.92 126.68 58.95 126.68 57.75C126.68 56.55 125.71 55.58 124.51 55.58C123.31 55.58 122.34 56.55 122.34 57.75C122.34 58.95 123.31 59.92 124.51 59.92Z" fill="white"/>
<path d="M126.68 62.63H122.34V80.98H126.68V62.63Z" fill="white"/>
<path d="M134.28 65.35H129.94V80.99H134.28V65.35Z" fill="white"/>
<path d="M134.28 65.35V67.96C134.71 67.09 135.15 66.44 136.02 65.79C136.89 65.36 137.76 65.14 138.84 65.14C141.23 65.14 142.75 66.23 143.62 68.61C144.05 69.48 144.27 70.35 144.27 71.65V80.99H139.93V71.65C139.93 70.78 139.93 69.91 139.28 69.48C138.85 68.83 138.19 68.61 137.33 68.61C136.24 68.61 135.59 68.83 135.16 69.48C134.51 70.13 134.29 70.78 134.29 71.87V80.99V65.35H134.28Z" fill="white"/>
<path d="M151.87 59.92H147.53V80.99H151.87V59.92Z" fill="white"/>
<path d="M151.87 71.21L157.08 65.35H162.08L156.22 72.08L162.3 80.98H157.31L152.97 74.46L151.88 75.98V71.2L151.87 71.21Z" fill="white"/>
<path d="M162.95 65.35H167.51L170.77 76.86H170.99L174.25 65.35H178.81L172.73 82.72C172.08 84.02 171.43 85.11 170.56 85.76C169.69 86.41 168.39 86.85 166.87 86.85H164.7V83.38C165.35 83.6 166 83.6 166.44 83.6C166.66 83.6 166.87 83.6 167.09 83.38C167.31 83.38 167.52 83.16 167.74 82.95C167.96 82.73 168.17 82.52 168.39 82.08L168.61 81.43L162.96 65.36L162.95 65.35Z" fill="white"/>
<path d="M79.64 93.13H80.34V98.16H82.96V98.78H79.63V93.12L79.64 93.13Z" fill="white"/>
<path d="M83.4401 93.4C83.4401 93.15 83.6501 92.95 83.9101 92.95C84.1701 92.95 84.3901 93.15 84.3901 93.4C84.3901 93.65 84.1701 93.85 83.9101 93.85C83.6501 93.85 83.4401 93.65 83.4401 93.4ZM83.5701 94.55H84.2401V98.79H83.5701V94.55Z" fill="white"/>
<path d="M85.75 98.79H85.08V94.55H85.73V95.21H85.78C85.98 94.78 86.37 94.49 87.02 94.49C87.88 94.49 88.45 95.01 88.45 96.09V98.79H87.78V96.14C87.78 95.48 87.42 95.09 86.82 95.09C86.22 95.09 85.75 95.5 85.75 96.24V98.79Z" fill="white"/>
<path d="M89.29 93.13H89.96V96.42H90.04L91.88 94.54H92.71L90.92 96.35L92.84 98.78H91.99L90.42 96.78L89.97 97.19V98.78H89.3V93.12L89.29 93.13Z" fill="white"/>
<path d="M95.36 93.13L96.91 95.75H96.98L98.53 93.13H99.34L97.29 96.47V98.79H96.58V96.47L94.54 93.13H95.34H95.36Z" fill="white"/>
<path d="M98.97 96.69C98.97 95.37 99.75 94.49 100.91 94.49C102.07 94.49 102.83 95.37 102.83 96.69C102.83 98.01 102.06 98.88 100.91 98.88C99.76 98.88 98.97 98.01 98.97 96.69ZM102.16 96.69C102.16 95.85 101.76 95.09 100.91 95.09C100.06 95.09 99.64 95.85 99.64 96.69C99.64 97.53 100.04 98.28 100.91 98.28C101.78 98.28 102.16 97.53 102.16 96.69Z" fill="white"/>
<path d="M106.15 94.55H106.81V98.79H106.15V98.07H106.1C105.9 98.5 105.48 98.84 104.84 98.84C104.04 98.84 103.46 98.32 103.46 97.24V94.54H104.13V97.19C104.13 97.8 104.51 98.19 105.05 98.19C105.53 98.19 106.14 97.83 106.14 97.04V94.54L106.15 94.55Z" fill="white"/>
<path d="M109.51 93.13H110.18V95.22H110.23C110.38 94.99 110.63 94.49 111.46 94.49C112.52 94.49 113.27 95.33 113.27 96.68C113.27 98.03 112.52 98.88 111.47 98.88C110.66 98.88 110.38 98.38 110.24 98.15H110.16V98.8H109.51V93.14V93.13ZM111.37 98.27C112.17 98.27 112.6 97.57 112.6 96.66C112.6 95.75 112.19 95.09 111.37 95.09C110.55 95.09 110.17 95.72 110.17 96.66C110.17 97.6 110.6 98.27 111.37 98.27Z" fill="white"/>
<path d="M113.7 96.7C113.7 95.4 114.47 94.49 115.62 94.49C116.51 94.49 117.45 95.04 117.45 96.61V96.89H114.37C114.4 97.79 114.92 98.28 115.68 98.28C116.19 98.28 116.51 98.06 116.66 97.8H117.38C117.18 98.44 116.55 98.88 115.68 98.88C114.45 98.88 113.7 98.01 113.7 96.71V96.7ZM116.77 96.32C116.77 95.61 116.32 95.09 115.62 95.09C114.89 95.09 114.42 95.67 114.38 96.32H116.77Z" fill="white"/>
<path d="M118.01 100.37V99.77C118.08 99.77 118.24 99.79 118.34 99.79C118.61 99.79 118.84 99.77 119.07 99.15L119.19 98.83L117.62 94.56H118.35L119.51 97.93H119.56L120.72 94.56H121.45L119.65 99.41C119.4 100.07 118.99 100.39 118.38 100.39C118.23 100.39 118.09 100.39 118 100.37H118.01Z" fill="white"/>
<path d="M121.59 96.69C121.59 95.37 122.37 94.49 123.53 94.49C124.69 94.49 125.45 95.37 125.45 96.69C125.45 98.01 124.68 98.88 123.53 98.88C122.38 98.88 121.59 98.01 121.59 96.69ZM124.78 96.69C124.78 95.85 124.38 95.09 123.53 95.09C122.68 95.09 122.26 95.85 122.26 96.69C122.26 97.53 122.66 98.28 123.53 98.28C124.4 98.28 124.78 97.53 124.78 96.69Z" fill="white"/>
<path d="M126.77 98.79H126.1V94.55H126.75V95.21H126.8C127 94.78 127.39 94.49 128.04 94.49C128.9 94.49 129.47 95.01 129.47 96.09V98.79H128.8V96.14C128.8 95.48 128.44 95.09 127.84 95.09C127.24 95.09 126.77 95.5 126.77 96.24V98.79Z" fill="white"/>
<path d="M130.1 96.68C130.1 95.34 130.85 94.49 131.91 94.49C132.73 94.49 133 94.99 133.14 95.22H133.19V93.13H133.87V98.79H133.21V98.14H133.14C132.99 98.37 132.72 98.87 131.91 98.87C130.86 98.87 130.11 98.02 130.11 96.67L130.1 96.68ZM133.21 96.66C133.21 95.72 132.79 95.09 132 95.09C131.21 95.09 130.78 95.78 130.78 96.66C130.78 97.54 131.19 98.27 132 98.27C132.81 98.27 133.21 97.61 133.21 96.66Z" fill="white"/>
<path d="M136.33 93.13H140.6V93.75H138.83V98.78H138.12V93.75H136.34V93.13H136.33Z" fill="white"/>
<path d="M140.39 96.69C140.39 95.37 141.17 94.49 142.33 94.49C143.49 94.49 144.25 95.37 144.25 96.69C144.25 98.01 143.48 98.88 142.33 98.88C141.18 98.88 140.39 98.01 140.39 96.69ZM143.58 96.69C143.58 95.85 143.18 95.09 142.33 95.09C141.48 95.09 141.06 95.85 141.06 96.69C141.06 97.53 141.46 98.28 142.33 98.28C143.2 98.28 143.58 97.53 143.58 96.69Z" fill="white"/>
<path d="M144.89 94.55H145.54V95.21H145.59C145.77 94.76 146.18 94.49 146.73 94.49C147.28 94.49 147.66 94.76 147.86 95.21H147.91C148.13 94.77 148.57 94.49 149.18 94.49C149.94 94.49 150.48 94.95 150.48 95.95V98.79H149.81V95.96C149.81 95.34 149.41 95.09 148.95 95.09C148.36 95.09 148.02 95.49 148.02 96.03V98.79H147.34V95.89C147.34 95.41 147 95.09 146.51 95.09C146.02 95.09 145.56 95.52 145.56 96.14V98.79H144.89V94.55Z" fill="white"/>
<path d="M151.12 96.69C151.12 95.37 151.9 94.49 153.06 94.49C154.22 94.49 154.98 95.37 154.98 96.69C154.98 98.01 154.21 98.88 153.06 98.88C151.91 98.88 151.12 98.01 151.12 96.69ZM154.31 96.69C154.31 95.85 153.91 95.09 153.06 95.09C152.21 95.09 151.79 95.85 151.79 96.69C151.79 97.53 152.19 98.28 153.06 98.28C153.93 98.28 154.31 97.53 154.31 96.69Z" fill="white"/>
<path d="M155.62 94.55H156.27V95.2H156.32C156.48 94.77 156.91 94.48 157.41 94.48C157.51 94.48 157.68 94.48 157.76 94.5V95.18C157.76 95.18 157.53 95.13 157.35 95.13C156.74 95.13 156.29 95.55 156.29 96.12V98.79H155.62V94.55Z" fill="white"/>
<path d="M158.18 94.55H158.83V95.2H158.88C159.04 94.77 159.47 94.48 159.97 94.48C160.07 94.48 160.24 94.48 160.32 94.5V95.18C160.32 95.18 160.09 95.13 159.91 95.13C159.3 95.13 158.85 95.55 158.85 96.12V98.79H158.18V94.55Z" fill="white"/>
<path d="M160.4 96.69C160.4 95.37 161.18 94.49 162.34 94.49C163.5 94.49 164.26 95.37 164.26 96.69C164.26 98.01 163.49 98.88 162.34 98.88C161.19 98.88 160.4 98.01 160.4 96.69ZM163.59 96.69C163.59 95.85 163.19 95.09 162.34 95.09C161.49 95.09 161.07 95.85 161.07 96.69C161.07 97.53 161.47 98.28 162.34 98.28C163.21 98.28 163.59 97.53 163.59 96.69Z" fill="white"/>
<path d="M164.42 94.55H165.13L166.04 97.78H166.08L166.98 94.55H167.7L168.58 97.77H168.63L169.54 94.55H170.24L168.95 98.79H168.29L167.37 95.56H167.31L166.4 98.79H165.73L164.44 94.55H164.42Z" fill="white"/>
</svg>
