<svg width="712" height="712" viewBox="0 0 712 712" fill="none" xmlns="http://www.w3.org/2000/svg">
<path d="M169.5 405.75L357.031 505.25H169.5V405.75Z" fill="#FFA631"/>
<path d="M356.5 131L543.995 286.25H169.005L356.5 131Z" fill="#9CB7A4"/>
<rect x="357" y="286.25" width="187" height="219" fill="#845D5E"/>
<path d="M175.781 565.25V533.25H182.547V559.672H196.266V565.25H175.781ZM200.621 565.25V541.25H207.277V565.25H200.621ZM203.965 538.156C202.975 538.156 202.126 537.828 201.418 537.172C200.72 536.505 200.371 535.708 200.371 534.781C200.371 533.865 200.72 533.078 201.418 532.422C202.126 531.755 202.975 531.422 203.965 531.422C204.954 531.422 205.798 531.755 206.496 532.422C207.204 533.078 207.559 533.865 207.559 534.781C207.559 535.708 207.204 536.505 206.496 537.172C205.798 537.828 204.954 538.156 203.965 538.156ZM219.266 551.375V565.25H212.609V541.25H218.953V545.484H219.234C219.766 544.089 220.656 542.984 221.906 542.172C223.156 541.349 224.672 540.938 226.453 540.938C228.12 540.938 229.573 541.302 230.813 542.031C232.052 542.76 233.016 543.802 233.703 545.156C234.391 546.5 234.734 548.104 234.734 549.969V565.25H228.078V551.156C228.089 549.687 227.714 548.542 226.953 547.719C226.193 546.885 225.146 546.469 223.813 546.469C222.917 546.469 222.125 546.661 221.438 547.047C220.76 547.432 220.229 547.995 219.844 548.734C219.469 549.464 219.276 550.344 219.266 551.375ZM246.012 558.344L246.027 550.359H246.996L254.684 541.25H262.324L251.996 553.313H250.418L246.012 558.344ZM239.98 565.25V533.25H246.637V565.25H239.98ZM254.98 565.25L247.918 554.797L252.355 550.094L262.777 565.25H254.98ZM270.086 574.25C269.242 574.25 268.451 574.182 267.711 574.047C266.982 573.922 266.378 573.76 265.898 573.562L267.398 568.594C268.18 568.833 268.883 568.964 269.508 568.984C270.143 569.005 270.69 568.859 271.148 568.547C271.617 568.234 271.997 567.703 272.289 566.953L272.68 565.938L264.07 541.25H271.07L276.039 558.875H276.289L281.305 541.25H288.352L279.023 567.844C278.576 569.135 277.966 570.26 277.195 571.219C276.435 572.188 275.471 572.932 274.305 573.453C273.138 573.984 271.732 574.25 270.086 574.25ZM302.066 565.25V533.25H308.832V559.672H322.551V565.25H302.066ZM337.75 565.719C335.323 565.719 333.224 565.203 331.453 564.172C329.693 563.13 328.333 561.682 327.375 559.828C326.417 557.964 325.938 555.802 325.938 553.344C325.938 550.865 326.417 548.698 327.375 546.844C328.333 544.979 329.693 543.531 331.453 542.5C333.224 541.458 335.323 540.938 337.75 540.938C340.177 540.938 342.271 541.458 344.031 542.5C345.802 543.531 347.167 544.979 348.125 546.844C349.083 548.698 349.563 550.865 349.563 553.344C349.563 555.802 349.083 557.964 348.125 559.828C347.167 561.682 345.802 563.13 344.031 564.172C342.271 565.203 340.177 565.719 337.75 565.719ZM337.781 560.562C338.885 560.562 339.807 560.25 340.547 559.625C341.286 558.99 341.844 558.125 342.219 557.031C342.604 555.937 342.797 554.693 342.797 553.297C342.797 551.901 342.604 550.656 342.219 549.562C341.844 548.469 341.286 547.604 340.547 546.969C339.807 546.333 338.885 546.016 337.781 546.016C336.667 546.016 335.729 546.333 334.969 546.969C334.219 547.604 333.651 548.469 333.266 549.562C332.891 550.656 332.703 551.901 332.703 553.297C332.703 554.693 332.891 555.937 333.266 557.031C333.651 558.125 334.219 558.99 334.969 559.625C335.729 560.25 336.667 560.562 337.781 560.562ZM369.281 555.031V541.25H375.938V565.25H369.547V560.891H369.297C368.755 562.297 367.854 563.427 366.594 564.281C365.344 565.135 363.818 565.563 362.016 565.563C360.411 565.563 359 565.198 357.781 564.469C356.563 563.74 355.609 562.703 354.922 561.359C354.245 560.016 353.901 558.406 353.891 556.531V541.25H360.547V555.344C360.557 556.76 360.938 557.88 361.688 558.703C362.438 559.526 363.443 559.937 364.703 559.937C365.505 559.937 366.255 559.755 366.953 559.391C367.651 559.016 368.214 558.464 368.641 557.734C369.078 557.005 369.292 556.104 369.281 555.031ZM387.918 551.375V565.25H381.262V541.25H387.605V545.484H387.887C388.418 544.089 389.309 542.984 390.559 542.172C391.809 541.349 393.324 540.938 395.105 540.938C396.772 540.938 398.225 541.302 399.465 542.031C400.704 542.76 401.668 543.802 402.355 545.156C403.043 546.5 403.387 548.104 403.387 549.969V565.25H396.73V551.156C396.741 549.687 396.366 548.542 395.605 547.719C394.845 546.885 393.798 546.469 392.465 546.469C391.569 546.469 390.777 546.661 390.09 547.047C389.413 547.432 388.882 547.995 388.496 548.734C388.121 549.464 387.928 550.344 387.918 551.375ZM419.445 574.75C417.289 574.75 415.44 574.453 413.898 573.859C412.367 573.276 411.148 572.479 410.242 571.469C409.336 570.458 408.747 569.323 408.477 568.062L414.633 567.234C414.82 567.714 415.117 568.161 415.523 568.578C415.93 568.995 416.466 569.328 417.133 569.578C417.81 569.839 418.633 569.969 419.602 569.969C421.049 569.969 422.242 569.615 423.18 568.906C424.128 568.208 424.602 567.036 424.602 565.391V561H424.32C424.029 561.667 423.591 562.297 423.008 562.891C422.424 563.484 421.674 563.969 420.758 564.344C419.841 564.719 418.747 564.906 417.477 564.906C415.674 564.906 414.034 564.49 412.555 563.656C411.086 562.812 409.914 561.526 409.039 559.797C408.174 558.057 407.742 555.859 407.742 553.203C407.742 550.484 408.185 548.214 409.07 546.391C409.956 544.568 411.133 543.203 412.602 542.297C414.081 541.391 415.701 540.938 417.461 540.938C418.805 540.938 419.93 541.167 420.836 541.625C421.742 542.073 422.471 542.635 423.023 543.312C423.586 543.979 424.018 544.635 424.32 545.281H424.57V541.25H431.18V565.484C431.18 567.526 430.68 569.234 429.68 570.609C428.68 571.984 427.294 573.016 425.523 573.703C423.763 574.401 421.737 574.75 419.445 574.75ZM419.586 559.906C420.659 559.906 421.565 559.641 422.305 559.109C423.055 558.568 423.628 557.797 424.023 556.797C424.43 555.786 424.633 554.578 424.633 553.172C424.633 551.766 424.435 550.547 424.039 549.516C423.643 548.474 423.07 547.667 422.32 547.094C421.57 546.521 420.659 546.234 419.586 546.234C418.492 546.234 417.57 546.531 416.82 547.125C416.07 547.708 415.503 548.521 415.117 549.562C414.732 550.604 414.539 551.807 414.539 553.172C414.539 554.557 414.732 555.755 415.117 556.766C415.513 557.766 416.081 558.542 416.82 559.094C417.57 559.635 418.492 559.906 419.586 559.906ZM447.414 565.719C444.945 565.719 442.82 565.219 441.039 564.219C439.268 563.208 437.904 561.781 436.945 559.937C435.987 558.083 435.508 555.891 435.508 553.359C435.508 550.891 435.987 548.724 436.945 546.859C437.904 544.995 439.253 543.542 440.992 542.5C442.742 541.458 444.794 540.938 447.148 540.938C448.732 540.938 450.206 541.193 451.57 541.703C452.945 542.203 454.143 542.958 455.164 543.969C456.195 544.979 456.997 546.25 457.57 547.781C458.143 549.302 458.43 551.083 458.43 553.125V554.953H438.164V550.828H452.164C452.164 549.87 451.956 549.021 451.539 548.281C451.122 547.542 450.544 546.964 449.805 546.547C449.076 546.12 448.227 545.906 447.258 545.906C446.247 545.906 445.352 546.141 444.57 546.609C443.799 547.068 443.195 547.687 442.758 548.469C442.32 549.24 442.096 550.099 442.086 551.047V554.969C442.086 556.156 442.305 557.182 442.742 558.047C443.19 558.911 443.82 559.578 444.633 560.047C445.445 560.516 446.409 560.75 447.523 560.75C448.263 560.75 448.94 560.646 449.555 560.438C450.169 560.229 450.695 559.917 451.133 559.5C451.57 559.083 451.904 558.573 452.133 557.969L458.289 558.375C457.977 559.854 457.336 561.146 456.367 562.25C455.409 563.344 454.169 564.198 452.648 564.813C451.138 565.417 449.393 565.719 447.414 565.719Z" fill="black"/>
</svg>
