<svg width="96" height="96" viewBox="0 0 96 96" fill="none" xmlns="http://www.w3.org/2000/svg">
<path opacity="0.25" d="M30.2609 64.6957C40.0579 64.6957 48 56.7536 48 46.9565C48 37.1595 40.0579 29.2174 30.2609 29.2174C20.4638 29.2174 12.5217 37.1595 12.5217 46.9565C12.5217 56.7536 20.4638 64.6957 30.2609 64.6957Z" fill="#00C896"/>
<path d="M65.7391 64.6956C75.5362 64.6956 83.4783 56.7536 83.4783 46.9565C83.4783 37.1595 75.5362 29.2174 65.7391 29.2174C55.9421 29.2174 48 37.1595 48 46.9565C48 56.7536 55.9421 64.6956 65.7391 64.6956Z" fill="#00C896"/>
<path d="M51.5478 39.8608H44.4522C40.5334 39.8608 37.3565 43.0376 37.3565 46.9565C37.3565 50.8753 40.5334 54.0521 44.4522 54.0521H51.5478C55.4667 54.0521 58.6435 50.8753 58.6435 46.9565C58.6435 43.0376 55.4667 39.8608 51.5478 39.8608Z" fill="#00C896"/>
<path d="M48 55.826C52.8985 55.826 56.8696 51.855 56.8696 46.9565C56.8696 42.0579 52.8985 38.0869 48 38.0869C43.1015 38.0869 39.1304 42.0579 39.1304 46.9565C39.1304 51.855 43.1015 55.826 48 55.826Z" fill="white"/>
</svg>
