<svg width="337" height="44" viewBox="0 0 337 44" fill="none" xmlns="http://www.w3.org/2000/svg">
<path d="M83.2756 35V8.81818H88.8111V30.4361H100.036V35H83.2756ZM103.599 35V15.3636H109.045V35H103.599ZM106.335 12.8324C105.525 12.8324 104.831 12.5639 104.251 12.027C103.68 11.4815 103.395 10.8295 103.395 10.071C103.395 9.32102 103.68 8.67756 104.251 8.14062C104.831 7.59517 105.525 7.32244 106.335 7.32244C107.145 7.32244 107.835 7.59517 108.406 8.14062C108.985 8.67756 109.275 9.32102 109.275 10.071C109.275 10.8295 108.985 11.4815 108.406 12.027C107.835 12.5639 107.145 12.8324 106.335 12.8324ZM118.854 23.6477V35H113.408V15.3636H118.598V18.8281H118.828C119.263 17.6861 119.991 16.7827 121.014 16.1179C122.037 15.4446 123.277 15.108 124.734 15.108C126.098 15.108 127.287 15.4062 128.301 16.0028C129.315 16.5994 130.104 17.4517 130.666 18.5597C131.229 19.6591 131.51 20.9716 131.51 22.4972V35H126.064V23.4688C126.072 22.267 125.766 21.3295 125.143 20.6562C124.521 19.9744 123.665 19.6335 122.574 19.6335C121.841 19.6335 121.193 19.7912 120.631 20.1065C120.077 20.4219 119.642 20.8821 119.327 21.4872C119.02 22.0838 118.862 22.804 118.854 23.6477ZM140.737 29.3494L140.75 22.8168H141.542L147.832 15.3636H154.083L145.633 25.233H144.342L140.737 29.3494ZM135.802 35V8.81818H141.248V35H135.802ZM148.075 35L142.297 26.4474L145.927 22.5994L154.454 35H148.075ZM160.434 42.3636C159.744 42.3636 159.096 42.3082 158.491 42.1974C157.894 42.0952 157.4 41.9631 157.008 41.8011L158.235 37.7358C158.874 37.9318 159.45 38.0384 159.961 38.0554C160.481 38.0724 160.928 37.9531 161.303 37.6974C161.687 37.4418 161.998 37.0071 162.237 36.3935L162.556 35.5625L155.512 15.3636H161.239L165.305 29.7841H165.509L169.613 15.3636H175.379L167.746 37.1222C167.38 38.179 166.881 39.0994 166.251 39.8835C165.629 40.6761 164.84 41.2855 163.886 41.7116C162.931 42.1463 161.781 42.3636 160.434 42.3636ZM186.6 35V8.81818H196.929C198.915 8.81818 200.607 9.19744 202.005 9.95597C203.402 10.706 204.468 11.75 205.201 13.0881C205.942 14.4176 206.313 15.9517 206.313 17.6903C206.313 19.429 205.938 20.9631 205.188 22.2926C204.438 23.6222 203.351 24.6577 201.928 25.3991C200.513 26.1406 198.8 26.5114 196.789 26.5114H190.205V22.0753H195.894C196.959 22.0753 197.837 21.892 198.527 21.5256C199.226 21.1506 199.746 20.6349 200.087 19.9787C200.436 19.3139 200.611 18.5511 200.611 17.6903C200.611 16.821 200.436 16.0625 200.087 15.4148C199.746 14.7585 199.226 14.2514 198.527 13.8935C197.828 13.527 196.942 13.3438 195.868 13.3438H192.135V35H186.6ZM214.878 35.3707C213.625 35.3707 212.509 35.1534 211.529 34.7188C210.549 34.2756 209.773 33.6236 209.202 32.7628C208.64 31.8935 208.358 30.8111 208.358 29.5156C208.358 28.4247 208.559 27.5085 208.959 26.767C209.36 26.0256 209.905 25.429 210.596 24.9773C211.286 24.5256 212.07 24.1847 212.948 23.9545C213.834 23.7244 214.763 23.5625 215.735 23.4688C216.877 23.3494 217.797 23.2386 218.496 23.1364C219.195 23.0256 219.702 22.8636 220.017 22.6506C220.333 22.4375 220.49 22.1222 220.49 21.7045V21.6278C220.49 20.8182 220.235 20.1918 219.723 19.7486C219.221 19.3054 218.505 19.0838 217.576 19.0838C216.596 19.0838 215.816 19.3011 215.236 19.7358C214.657 20.1619 214.273 20.6989 214.086 21.3466L209.049 20.9375C209.304 19.7443 209.807 18.7131 210.557 17.8438C211.307 16.9659 212.275 16.2926 213.459 15.8239C214.652 15.3466 216.033 15.108 217.601 15.108C218.692 15.108 219.736 15.2358 220.733 15.4915C221.739 15.7472 222.63 16.1435 223.405 16.6804C224.189 17.2173 224.807 17.9077 225.259 18.7514C225.711 19.5866 225.936 20.5881 225.936 21.7557V35H220.772V32.277H220.618C220.303 32.8906 219.881 33.4318 219.353 33.9006C218.824 34.3608 218.189 34.723 217.448 34.9872C216.706 35.2429 215.85 35.3707 214.878 35.3707ZM216.438 31.6122C217.239 31.6122 217.946 31.4545 218.56 31.1392C219.174 30.8153 219.655 30.3807 220.005 29.8352C220.354 29.2898 220.529 28.6719 220.529 27.9815V25.8977C220.358 26.0085 220.124 26.1108 219.826 26.2045C219.536 26.2898 219.208 26.3707 218.841 26.4474C218.475 26.5156 218.108 26.5795 217.742 26.6392C217.375 26.6903 217.043 26.7372 216.745 26.7798C216.105 26.8736 215.547 27.0227 215.07 27.2273C214.593 27.4318 214.222 27.7088 213.958 28.0582C213.694 28.3991 213.561 28.8253 213.561 29.3366C213.561 30.0781 213.83 30.6449 214.367 31.0369C214.912 31.4205 215.603 31.6122 216.438 31.6122ZM230.162 35V15.3636H235.441V18.7898H235.646C236.004 17.571 236.605 16.6506 237.449 16.0284C238.292 15.3977 239.264 15.0824 240.363 15.0824C240.636 15.0824 240.93 15.0994 241.245 15.1335C241.561 15.1676 241.838 15.2145 242.076 15.2741V20.1065C241.821 20.0298 241.467 19.9616 241.015 19.902C240.564 19.8423 240.15 19.8125 239.775 19.8125C238.974 19.8125 238.258 19.9872 237.627 20.3366C237.005 20.6776 236.511 21.1548 236.145 21.7685C235.787 22.3821 235.608 23.0895 235.608 23.8906V35H230.162ZM256.321 15.3636V19.4545H244.496V15.3636H256.321ZM247.18 10.6591H252.626V28.9659C252.626 29.4687 252.703 29.8608 252.857 30.142C253.01 30.4148 253.223 30.6065 253.496 30.7173C253.777 30.8281 254.101 30.8835 254.467 30.8835C254.723 30.8835 254.979 30.8622 255.234 30.8196C255.49 30.7685 255.686 30.7301 255.822 30.7045L256.679 34.7571C256.406 34.8423 256.023 34.9403 255.528 35.0511C255.034 35.1705 254.433 35.2429 253.726 35.2685C252.413 35.3196 251.263 35.1449 250.274 34.7443C249.294 34.3437 248.531 33.7216 247.986 32.8778C247.44 32.0341 247.172 30.9687 247.18 29.6818V10.6591ZM265.315 23.6477V35H259.869V15.3636H265.059V18.8281H265.289C265.724 17.6861 266.452 16.7827 267.475 16.1179C268.498 15.4446 269.738 15.108 271.195 15.108C272.559 15.108 273.748 15.4062 274.762 16.0028C275.776 16.5994 276.565 17.4517 277.127 18.5597C277.69 19.6591 277.971 20.9716 277.971 22.4972V35H272.525V23.4688C272.533 22.267 272.227 21.3295 271.604 20.6562C270.982 19.9744 270.126 19.6335 269.035 19.6335C268.302 19.6335 267.654 19.7912 267.092 20.1065C266.538 20.4219 266.103 20.8821 265.788 21.4872C265.481 22.0838 265.323 22.804 265.315 23.6477ZM291.212 35.3835C289.192 35.3835 287.453 34.9744 285.996 34.1562C284.547 33.3295 283.431 32.1619 282.647 30.6534C281.863 29.1364 281.471 27.3423 281.471 25.2713C281.471 23.2514 281.863 21.4787 282.647 19.9531C283.431 18.4276 284.534 17.2386 285.958 16.3864C287.39 15.5341 289.069 15.108 290.995 15.108C292.29 15.108 293.496 15.3168 294.613 15.7344C295.738 16.1435 296.718 16.7614 297.553 17.5881C298.397 18.4148 299.053 19.4545 299.522 20.7074C299.99 21.9517 300.225 23.4091 300.225 25.0795V26.5753H283.644V23.2003H295.098C295.098 22.4162 294.928 21.7216 294.587 21.1165C294.246 20.5114 293.773 20.0384 293.168 19.6974C292.571 19.348 291.877 19.1733 291.084 19.1733C290.257 19.1733 289.525 19.3651 288.885 19.7486C288.255 20.1236 287.76 20.6307 287.402 21.2699C287.044 21.9006 286.861 22.6037 286.853 23.3793V26.5881C286.853 27.5597 287.032 28.3991 287.39 29.1065C287.756 29.8139 288.272 30.3594 288.936 30.7429C289.601 31.1264 290.39 31.3182 291.301 31.3182C291.907 31.3182 292.461 31.233 292.963 31.0625C293.466 30.892 293.897 30.6364 294.255 30.2955C294.613 29.9545 294.885 29.5369 295.073 29.0426L300.11 29.375C299.854 30.5852 299.33 31.642 298.537 32.5455C297.753 33.4403 296.739 34.1392 295.495 34.642C294.259 35.1364 292.831 35.3835 291.212 35.3835ZM303.779 35V15.3636H309.059V18.7898H309.263C309.621 17.571 310.222 16.6506 311.066 16.0284C311.909 15.3977 312.881 15.0824 313.98 15.0824C314.253 15.0824 314.547 15.0994 314.863 15.1335C315.178 15.1676 315.455 15.2145 315.694 15.2741V20.1065C315.438 20.0298 315.084 19.9616 314.632 19.902C314.181 19.8423 313.767 19.8125 313.392 19.8125C312.591 19.8125 311.875 19.9872 311.245 20.3366C310.623 20.6776 310.128 21.1548 309.762 21.7685C309.404 22.3821 309.225 23.0895 309.225 23.8906V35H303.779ZM334.847 20.9631L329.862 21.2699C329.776 20.8437 329.593 20.4602 329.312 20.1193C329.031 19.7699 328.66 19.4929 328.2 19.2884C327.748 19.0753 327.207 18.9688 326.576 18.9688C325.732 18.9688 325.021 19.1477 324.441 19.5057C323.862 19.8551 323.572 20.3239 323.572 20.9119C323.572 21.3807 323.759 21.777 324.134 22.1009C324.509 22.4247 325.153 22.6847 326.065 22.8807L329.619 23.5966C331.528 23.9886 332.951 24.6193 333.888 25.4886C334.826 26.358 335.295 27.5 335.295 28.9148C335.295 30.2017 334.915 31.331 334.157 32.3026C333.407 33.2741 332.376 34.0327 331.063 34.5781C329.759 35.1151 328.255 35.3835 326.55 35.3835C323.951 35.3835 321.88 34.8423 320.337 33.7599C318.803 32.669 317.904 31.1861 317.64 29.3111L322.996 29.0298C323.158 29.8224 323.55 30.4276 324.173 30.8452C324.795 31.2543 325.592 31.4588 326.563 31.4588C327.518 31.4588 328.285 31.2756 328.864 30.9091C329.452 30.5341 329.751 30.0526 329.759 29.4645C329.751 28.9702 329.542 28.5653 329.133 28.25C328.724 27.9261 328.093 27.679 327.241 27.5085L323.84 26.831C321.923 26.4474 320.495 25.7827 319.558 24.8366C318.629 23.8906 318.164 22.6847 318.164 21.2188C318.164 19.9574 318.505 18.8707 319.187 17.9588C319.877 17.0469 320.844 16.3438 322.089 15.8494C323.342 15.3551 324.808 15.108 326.487 15.108C328.967 15.108 330.918 15.6321 332.342 16.6804C333.773 17.7287 334.609 19.1562 334.847 20.9631Z" fill="#00C896"/>
<path opacity="0.25" d="M17.7392 39.6957C27.5362 39.6957 35.4783 31.7536 35.4783 21.9565C35.4783 12.1595 27.5362 4.21741 17.7392 4.21741C7.9421 4.21741 0 12.1595 0 21.9565C0 31.7536 7.9421 39.6957 17.7392 39.6957Z" fill="#00C896"/>
<path d="M53.2174 39.4782C63.0145 39.4782 70.9566 31.5362 70.9566 21.7391C70.9566 11.9421 63.0145 4 53.2174 4C43.4204 4 35.4783 11.9421 35.4783 21.7391C35.4783 31.5362 43.4204 39.4782 53.2174 39.4782Z" fill="#00C896"/>
<path d="M39.0261 15H31.9305C28.0117 15 24.8348 18.1768 24.8348 22.0957C24.8348 26.0145 28.0117 29.1913 31.9305 29.1913H39.0261C42.945 29.1913 46.1218 26.0145 46.1218 22.0957C46.1218 18.1768 42.945 15 39.0261 15Z" fill="#00C896"/>
<path d="M35.4783 30.7391C40.3768 30.7391 44.3479 26.7681 44.3479 21.8696C44.3479 16.971 40.3768 13 35.4783 13C30.5798 13 26.6087 16.971 26.6087 21.8696C26.6087 26.7681 30.5798 30.7391 35.4783 30.7391Z" fill="white"/>
</svg>
