<svg width="176" height="44" viewBox="0 0 176 44" fill="none" xmlns="http://www.w3.org/2000/svg">
<path d="M83.2756 35V8.81818H88.8111V30.4361H100.036V35H83.2756ZM103.599 35V15.3636H109.045V35H103.599ZM106.335 12.8324C105.525 12.8324 104.831 12.5639 104.251 12.027C103.68 11.4815 103.395 10.8295 103.395 10.071C103.395 9.32102 103.68 8.67756 104.251 8.14062C104.831 7.59517 105.525 7.32244 106.335 7.32244C107.145 7.32244 107.835 7.59517 108.406 8.14062C108.985 8.67756 109.275 9.32102 109.275 10.071C109.275 10.8295 108.985 11.4815 108.406 12.027C107.835 12.5639 107.145 12.8324 106.335 12.8324ZM118.854 23.6477V35H113.408V15.3636H118.598V18.8281H118.828C119.263 17.6861 119.991 16.7827 121.014 16.1179C122.037 15.4446 123.277 15.108 124.734 15.108C126.098 15.108 127.287 15.4062 128.301 16.0028C129.315 16.5994 130.104 17.4517 130.666 18.5597C131.229 19.6591 131.51 20.9716 131.51 22.4972V35H126.064V23.4688C126.072 22.267 125.766 21.3295 125.143 20.6562C124.521 19.9744 123.665 19.6335 122.574 19.6335C121.841 19.6335 121.193 19.7912 120.631 20.1065C120.077 20.4219 119.642 20.8821 119.327 21.4872C119.02 22.0838 118.862 22.804 118.854 23.6477ZM140.737 29.3494L140.75 22.8168H141.542L147.832 15.3636H154.083L145.633 25.233H144.342L140.737 29.3494ZM135.802 35V8.81818H141.248V35H135.802ZM148.075 35L142.297 26.4474L145.927 22.5994L154.454 35H148.075ZM160.434 42.3636C159.744 42.3636 159.096 42.3082 158.491 42.1974C157.894 42.0952 157.4 41.9631 157.008 41.8011L158.235 37.7358C158.874 37.9318 159.45 38.0384 159.961 38.0554C160.481 38.0724 160.928 37.9531 161.303 37.6974C161.687 37.4418 161.998 37.0071 162.237 36.3935L162.556 35.5625L155.512 15.3636H161.239L165.305 29.7841H165.509L169.613 15.3636H175.379L167.746 37.1222C167.38 38.179 166.881 39.0994 166.251 39.8835C165.629 40.6761 164.84 41.2855 163.886 41.7116C162.931 42.1463 161.781 42.3636 160.434 42.3636Z" fill="#00C896"/>
<path opacity="0.25" d="M17.7392 39.6957C27.5362 39.6957 35.4783 31.7536 35.4783 21.9565C35.4783 12.1595 27.5362 4.21741 17.7392 4.21741C7.9421 4.21741 0 12.1595 0 21.9565C0 31.7536 7.9421 39.6957 17.7392 39.6957Z" fill="#00C896"/>
<path d="M53.2174 39.4782C63.0145 39.4782 70.9566 31.5362 70.9566 21.7391C70.9566 11.9421 63.0145 4 53.2174 4C43.4204 4 35.4783 11.9421 35.4783 21.7391C35.4783 31.5362 43.4204 39.4782 53.2174 39.4782Z" fill="#00C896"/>
<path d="M39.0261 15H31.9305C28.0117 15 24.8348 18.1768 24.8348 22.0957C24.8348 26.0145 28.0117 29.1913 31.9305 29.1913H39.0261C42.945 29.1913 46.1218 26.0145 46.1218 22.0957C46.1218 18.1768 42.945 15 39.0261 15Z" fill="#00C896"/>
<path d="M35.4783 30.7391C40.3768 30.7391 44.3479 26.7681 44.3479 21.8696C44.3479 16.971 40.3768 13 35.4783 13C30.5798 13 26.6087 16.971 26.6087 21.8696C26.6087 26.7681 30.5798 30.7391 35.4783 30.7391Z" fill="white"/>
</svg>
