<svg width="96" height="96" viewBox="0 0 96 96" fill="none" xmlns="http://www.w3.org/2000/svg">
<path d="M30.2607 30.7173C39.2293 30.7173 46.5 37.988 46.5 46.9565C46.4999 55.9251 39.2292 63.1958 30.2607 63.1958C21.2921 63.1958 14.0216 55.9251 14.0215 46.9565C14.0215 37.988 21.2921 30.7173 30.2607 30.7173Z" fill="#00C896" stroke="white" stroke-width="3"/>
<path d="M65.7391 64.6955C75.5362 64.6955 83.4783 56.7535 83.4783 46.9564C83.4783 37.1594 75.5362 29.2173 65.7391 29.2173C55.9421 29.2173 48 37.1594 48 46.9564C48 56.7535 55.9421 64.6955 65.7391 64.6955Z" fill="white"/>
<path d="M51.5477 39.8608H44.4521C40.5333 39.8608 37.3564 43.0376 37.3564 46.9565C37.3564 50.8753 40.5333 54.0521 44.4521 54.0521H51.5477C55.4666 54.0521 58.6434 50.8753 58.6434 46.9565C58.6434 43.0376 55.4666 39.8608 51.5477 39.8608Z" fill="#007C5D"/>
<path d="M48 39.0869C52.3461 39.0869 55.8699 42.61 55.8701 46.9561C55.8701 51.3023 52.3462 54.8262 48 54.8262C43.654 54.8259 40.1309 51.3021 40.1309 46.9561C40.1311 42.6101 43.6541 39.0872 48 39.0869Z" fill="#00C896" stroke="white" stroke-width="2"/>
</svg>
