<svg width="379" height="414" viewBox="0 0 379 414" fill="none" xmlns="http://www.w3.org/2000/svg">
<path d="M0.504211 262.788L189.616 357.955H0.504211V262.788Z" fill="#FFA631"/>
<path d="M189.08 0L378.155 148.491H0.0050354L189.08 0Z" fill="#9CB7A4"/>
<path d="M378.16 148.491H189.584V357.955H378.16V148.491Z" fill="#845D5E"/>
<path d="M0 404.418V373.812H6.82301V399.083H20.6576V404.418H0ZM25.0493 404.418V381.463H31.7614V404.418H25.0493ZM28.4215 378.504C27.4232 378.504 26.567 378.19 25.853 377.563C25.1492 376.925 24.7972 376.163 24.7972 375.276C24.7972 374.4 25.1492 373.647 25.853 373.02C26.567 372.382 27.4232 372.063 28.4215 372.063C29.4188 372.063 30.2699 372.382 30.9738 373.02C31.6878 373.647 32.0458 374.4 32.0458 375.276C32.0458 376.163 31.6878 376.925 30.9738 377.563C30.2699 378.19 29.4188 378.504 28.4215 378.504ZM43.8514 391.147V404.418H37.1383V381.463H43.5358V385.513H43.8192C44.3556 384.179 45.2532 383.122 46.5137 382.345C47.7742 381.558 49.303 381.165 51.099 381.165C52.7801 381.165 54.2453 381.513 55.4957 382.21C56.7452 382.908 57.7173 383.904 58.4101 385.199C59.1039 386.485 59.4498 388.019 59.4498 389.803V404.418H52.7377V390.938C52.7488 389.533 52.3706 388.438 51.6032 387.651C50.8368 386.853 49.781 386.455 48.4368 386.455C47.5332 386.455 46.7345 386.639 46.0417 387.008C45.358 387.376 44.8225 387.915 44.4343 388.621C44.0561 389.32 43.8615 390.161 43.8514 391.147ZM70.8228 397.813L70.8379 390.176H71.8151L79.5679 381.463H87.2723L76.8573 393.001H75.266L70.8228 397.813ZM64.74 404.418V373.812H71.4531V404.418H64.74ZM79.8664 404.418L72.7449 394.42L77.2193 389.922L87.7291 404.418H79.8664ZM95.0997 413.027C94.2486 413.027 93.4509 412.961 92.7047 412.832C91.9695 412.713 91.3605 412.558 90.8764 412.368L92.3891 407.617C93.1776 407.845 93.8866 407.971 94.5168 407.99C95.1572 408.01 95.7088 407.87 96.1707 407.572C96.6436 407.272 97.0268 406.765 97.3213 406.047L97.7155 405.076L89.033 381.463H96.092L101.103 398.321H101.355L106.413 381.463H113.52L104.112 406.899C103.661 408.134 103.046 409.21 102.269 410.127C101.502 411.054 100.53 411.766 99.3542 412.264C98.1774 412.772 96.7596 413.027 95.0997 413.027ZM127.349 404.418V373.812H134.172V399.083H148.007V404.418H127.349ZM163.334 404.867C160.886 404.867 158.77 404.373 156.984 403.387C155.209 402.391 153.838 401.006 152.871 399.232C151.905 397.45 151.422 395.382 151.422 393.031C151.422 390.66 151.905 388.587 152.871 386.814C153.838 385.03 155.209 383.645 156.984 382.659C158.77 381.662 160.886 381.165 163.334 381.165C165.781 381.165 167.893 381.662 169.668 382.659C171.454 383.645 172.83 385.03 173.796 386.814C174.762 388.587 175.246 390.66 175.246 393.031C175.246 395.382 174.762 397.45 173.796 399.232C172.83 401.006 171.454 402.391 169.668 403.387C167.893 404.373 165.781 404.867 163.334 404.867ZM163.365 399.934C164.478 399.934 165.408 399.636 166.154 399.038C166.9 398.431 167.462 397.604 167.841 396.557C168.229 395.511 168.423 394.321 168.423 392.986C168.423 391.651 168.229 390.46 167.841 389.413C167.462 388.368 166.9 387.541 166.154 386.933C165.408 386.325 164.478 386.022 163.365 386.022C162.242 386.022 161.296 386.325 160.529 386.933C159.773 387.541 159.2 388.368 158.812 389.413C158.434 390.46 158.244 391.651 158.244 392.986C158.244 394.321 158.434 395.511 158.812 396.557C159.2 397.604 159.773 398.431 160.529 399.038C161.296 399.636 162.242 399.934 163.365 399.934ZM195.131 394.644V381.463H201.844V404.418H195.399V400.249H195.147C194.6 401.594 193.692 402.675 192.421 403.492C191.16 404.308 189.622 404.718 187.804 404.718C186.186 404.718 184.763 404.369 183.534 403.671C182.305 402.974 181.343 401.982 180.651 400.697C179.968 399.412 179.621 397.872 179.611 396.079V381.463H186.323V394.944C186.333 396.298 186.717 397.369 187.474 398.156C188.23 398.944 189.243 399.337 190.514 399.337C191.323 399.337 192.079 399.163 192.783 398.814C193.487 398.456 194.055 397.928 194.485 397.23C194.926 396.532 195.142 395.671 195.131 394.644ZM213.925 391.147V404.418H207.213V381.463H213.609V385.513H213.893C214.429 384.179 215.327 383.122 216.588 382.345C217.848 381.558 219.376 381.165 221.172 381.165C222.853 381.165 224.319 381.513 225.569 382.21C226.818 382.908 227.791 383.904 228.483 385.199C229.177 386.485 229.524 388.019 229.524 389.803V404.418H222.811V390.938C222.822 389.533 222.444 388.438 221.676 387.651C220.91 386.853 219.854 386.455 218.51 386.455C217.606 386.455 216.808 386.639 216.115 387.008C215.432 387.376 214.897 387.915 214.508 388.621C214.129 389.32 213.935 390.161 213.925 391.147ZM245.717 413.505C243.543 413.505 241.679 413.221 240.124 412.653C238.58 412.095 237.35 411.333 236.437 410.367C235.523 409.4 234.929 408.314 234.657 407.108L240.865 406.316C241.053 406.775 241.353 407.203 241.762 407.601C242.173 408 242.713 408.319 243.386 408.558C244.069 408.808 244.898 408.932 245.876 408.932C247.335 408.932 248.538 408.593 249.484 407.915C250.44 407.248 250.918 406.127 250.918 404.553V400.353H250.633C250.34 400.991 249.898 401.594 249.31 402.162C248.721 402.729 247.965 403.193 247.041 403.552C246.117 403.91 245.013 404.089 243.733 404.089C241.915 404.089 240.261 403.691 238.769 402.894C237.288 402.087 236.106 400.857 235.224 399.203C234.351 397.539 233.916 395.436 233.916 392.896C233.916 390.295 234.362 388.124 235.255 386.38C236.148 384.637 237.335 383.331 238.817 382.465C240.308 381.598 241.942 381.165 243.717 381.165C245.072 381.165 246.206 381.384 247.12 381.822C248.034 382.25 248.769 382.788 249.325 383.436C249.893 384.074 250.329 384.701 250.633 385.319H250.886V381.463H257.551V404.642C257.551 406.595 257.047 408.229 256.039 409.544C255.03 410.859 253.632 411.846 251.847 412.503C250.072 413.171 248.029 413.505 245.717 413.505ZM245.86 399.307C246.942 399.307 247.855 399.054 248.601 398.545C249.358 398.027 249.936 397.29 250.334 396.333C250.744 395.366 250.949 394.211 250.949 392.866C250.949 391.521 250.749 390.356 250.35 389.369C249.951 388.373 249.373 387.601 248.617 387.053C247.86 386.505 246.942 386.23 245.86 386.23C244.756 386.23 243.827 386.514 243.07 387.083C242.314 387.64 241.742 388.418 241.353 389.413C240.965 390.41 240.77 391.561 240.77 392.866C240.77 394.191 240.965 395.337 241.353 396.304C241.752 397.26 242.325 398.002 243.07 398.53C243.827 399.048 244.756 399.307 245.86 399.307ZM273.922 404.867C271.432 404.867 269.289 404.389 267.493 403.432C265.707 402.465 264.332 401.1 263.365 399.337C262.399 397.563 261.916 395.467 261.916 393.045C261.916 390.685 262.399 388.612 263.365 386.828C264.332 385.045 265.692 383.656 267.446 382.659C269.211 381.662 271.28 381.165 273.654 381.165C275.251 381.165 276.738 381.409 278.113 381.897C279.5 382.375 280.708 383.097 281.737 384.064C282.777 385.03 283.586 386.246 284.164 387.71C284.741 389.165 285.031 390.868 285.031 392.821V394.57H264.594V390.624H278.712C278.712 389.708 278.502 388.896 278.082 388.188C277.661 387.481 277.078 386.929 276.333 386.53C275.598 386.121 274.742 385.917 273.765 385.917C272.745 385.917 271.843 386.141 271.054 386.589C270.277 387.028 269.667 387.62 269.227 388.368C268.785 389.105 268.559 389.927 268.549 390.834V394.585C268.549 395.72 268.77 396.702 269.211 397.529C269.662 398.355 270.298 398.993 271.118 399.442C271.936 399.89 272.909 400.114 274.032 400.114C274.778 400.114 275.461 400.015 276.081 399.816C276.7 399.616 277.231 399.318 277.672 398.919C278.113 398.52 278.45 398.032 278.681 397.454L284.889 397.843C284.574 399.257 283.928 400.493 282.95 401.549C281.984 402.595 280.734 403.412 279.2 404C277.677 404.578 275.918 404.867 273.922 404.867Z" fill="black"/>
</svg>
