<svg width="378" height="416" viewBox="0 0 378 416" fill="none" xmlns="http://www.w3.org/2000/svg">
<path d="M0 262L189 357H0V262Z" fill="white"/>
<path d="M378 148H0L189 0L378 148Z" fill="white"/>
<path d="M378 147V357H189V147H378Z" fill="white"/>
<path d="M1 406.355V375.748H7.82301V401.02H21.6576V406.355H1ZM26.0493 406.355V383.4H32.7614V406.355H26.0493ZM29.4215 380.441C28.4232 380.441 27.567 380.127 26.853 379.5C26.1492 378.862 25.7972 378.099 25.7972 377.213C25.7972 376.337 26.1492 375.584 26.853 374.956C27.567 374.319 28.4232 374 29.4215 374C30.4188 374 31.2699 374.319 31.9738 374.956C32.6878 375.584 33.0458 376.337 33.0458 377.213C33.0458 378.099 32.6878 378.862 31.9738 379.5C31.2699 380.127 30.4188 380.441 29.4215 380.441ZM44.8514 393.084V406.355H38.1383V383.4H44.5358V387.45H44.8192C45.3556 386.115 46.2532 385.059 47.5137 384.282C48.7742 383.495 50.303 383.102 52.099 383.102C53.7801 383.102 55.2453 383.45 56.4957 384.147C57.7452 384.844 58.7173 385.841 59.4101 387.136C60.1039 388.422 60.4498 389.956 60.4498 391.739V406.355H53.7377V392.875C53.7488 391.47 53.3706 390.375 52.6032 389.587C51.8368 388.79 50.781 388.392 49.4368 388.392C48.5332 388.392 47.7345 388.576 47.0417 388.945C46.358 389.313 45.8225 389.851 45.4343 390.558C45.0561 391.256 44.8615 392.098 44.8514 393.084ZM71.8228 399.75L71.8379 392.113H72.8151L80.5679 383.4H88.2723L77.8573 394.938H76.266L71.8228 399.75ZM65.74 406.355V375.748H72.4531V406.355H65.74ZM80.8664 406.355L73.7449 396.357L78.2193 391.859L88.7291 406.355H80.8664ZM96.0997 414.963C95.2486 414.963 94.4509 414.898 93.7047 414.769C92.9695 414.65 92.3605 414.495 91.8764 414.305L93.3891 409.554C94.1776 409.782 94.8865 409.907 95.5168 409.927C96.1572 409.947 96.7088 409.807 97.1707 409.509C97.6436 409.209 98.0268 408.701 98.3213 407.984L98.7155 407.013L90.033 383.4H97.092L102.103 400.258H102.355L107.413 383.4H114.52L105.112 408.836C104.661 410.071 104.046 411.147 103.269 412.064C102.502 412.991 101.53 413.703 100.354 414.201C99.1774 414.709 97.7596 414.963 96.0997 414.963ZM128.349 406.355V375.748H135.172V401.02H149.007V406.355H128.349ZM164.334 406.804C161.886 406.804 159.77 406.31 157.984 405.324C156.209 404.327 154.838 402.943 153.871 401.169C152.905 399.386 152.422 397.319 152.422 394.968C152.422 392.596 152.905 390.524 153.871 388.751C154.838 386.967 156.209 385.582 157.984 384.596C159.77 383.599 161.886 383.102 164.334 383.102C166.781 383.102 168.893 383.599 170.668 384.596C172.454 385.582 173.83 386.967 174.796 388.751C175.762 390.524 176.246 392.596 176.246 394.968C176.246 397.319 175.762 399.386 174.796 401.169C173.83 402.943 172.454 404.327 170.668 405.324C168.893 406.31 166.781 406.804 164.334 406.804ZM164.365 401.871C165.478 401.871 166.408 401.573 167.154 400.975C167.9 400.368 168.462 399.54 168.841 398.494C169.229 397.448 169.423 396.258 169.423 394.923C169.423 393.587 169.229 392.397 168.841 391.35C168.462 390.305 167.9 389.477 167.154 388.87C166.408 388.262 165.478 387.959 164.365 387.959C163.242 387.959 162.296 388.262 161.529 388.87C160.773 389.477 160.2 390.305 159.812 391.35C159.434 392.397 159.244 393.587 159.244 394.923C159.244 396.258 159.434 397.448 159.812 398.494C160.2 399.54 160.773 400.368 161.529 400.975C162.296 401.573 163.242 401.871 164.365 401.871ZM196.131 396.581V383.4H202.844V406.355H196.399V402.186H196.147C195.6 403.531 194.692 404.612 193.421 405.428C192.16 406.245 190.622 406.655 188.804 406.655C187.186 406.655 185.763 406.305 184.534 405.608C183.305 404.911 182.343 403.919 181.651 402.634C180.968 401.349 180.621 399.809 180.611 398.016V383.4H187.323V396.88C187.333 398.235 187.717 399.306 188.474 400.093C189.23 400.88 190.243 401.273 191.514 401.273C192.323 401.273 193.079 401.099 193.783 400.751C194.487 400.393 195.055 399.865 195.485 399.166C195.926 398.469 196.142 397.607 196.131 396.581ZM214.925 393.084V406.355H208.213V383.4H214.609V387.45H214.893C215.429 386.115 216.327 385.059 217.588 384.282C218.848 383.495 220.376 383.102 222.172 383.102C223.853 383.102 225.319 383.45 226.569 384.147C227.818 384.844 228.791 385.841 229.483 387.136C230.177 388.422 230.524 389.956 230.524 391.739V406.355H223.811V392.875C223.822 391.47 223.444 390.375 222.676 389.587C221.91 388.79 220.854 388.392 219.51 388.392C218.606 388.392 217.808 388.576 217.115 388.945C216.432 389.313 215.897 389.851 215.508 390.558C215.129 391.256 214.935 392.098 214.925 393.084ZM246.717 415.442C244.543 415.442 242.679 415.157 241.124 414.589C239.58 414.032 238.35 413.269 237.437 412.303C236.523 411.336 235.929 410.251 235.657 409.045L241.865 408.253C242.053 408.712 242.353 409.139 242.762 409.538C243.173 409.937 243.713 410.256 244.386 410.495C245.069 410.744 245.898 410.869 246.876 410.869C248.335 410.869 249.538 410.53 250.484 409.852C251.44 409.184 251.918 408.063 251.918 406.49V402.29H251.633C251.34 402.928 250.898 403.531 250.31 404.099C249.721 404.666 248.965 405.13 248.041 405.489C247.117 405.847 246.013 406.026 244.733 406.026C242.915 406.026 241.261 405.628 239.769 404.831C238.288 404.023 237.106 402.793 236.224 401.14C235.351 399.475 234.916 397.373 234.916 394.833C234.916 392.232 235.362 390.061 236.255 388.317C237.148 386.574 238.335 385.268 239.817 384.402C241.308 383.535 242.942 383.102 244.717 383.102C246.072 383.102 247.206 383.321 248.12 383.759C249.034 384.187 249.769 384.725 250.325 385.372C250.893 386.01 251.329 386.638 251.633 387.256H251.886V383.4H258.551V406.579C258.551 408.532 258.047 410.166 257.039 411.481C256.03 412.796 254.632 413.783 252.847 414.44C251.072 415.108 249.029 415.442 246.717 415.442ZM246.86 401.244C247.942 401.244 248.855 400.99 249.601 400.482C250.358 399.964 250.936 399.227 251.334 398.27C251.744 397.303 251.949 396.148 251.949 394.803C251.949 393.458 251.749 392.292 251.35 391.306C250.951 390.31 250.373 389.538 249.617 388.99C248.86 388.442 247.942 388.167 246.86 388.167C245.756 388.167 244.827 388.451 244.07 389.019C243.314 389.577 242.742 390.355 242.353 391.35C241.965 392.347 241.77 393.497 241.77 394.803C241.77 396.128 241.965 397.274 242.353 398.241C242.752 399.197 243.325 399.939 244.07 400.467C244.827 400.985 245.756 401.244 246.86 401.244ZM274.922 406.804C272.432 406.804 270.289 406.326 268.493 405.369C266.707 404.402 265.332 403.037 264.365 401.273C263.399 399.5 262.916 397.404 262.916 394.982C262.916 392.621 263.399 390.549 264.365 388.765C265.332 386.982 266.692 385.592 268.446 384.596C270.211 383.599 272.28 383.102 274.654 383.102C276.251 383.102 277.738 383.346 279.113 383.833C280.5 384.312 281.708 385.034 282.737 386.001C283.777 386.967 284.586 388.182 285.164 389.647C285.741 391.102 286.031 392.805 286.031 394.758V396.506H265.594V392.561H279.712C279.712 391.645 279.502 390.833 279.082 390.125C278.661 389.418 278.078 388.865 277.333 388.466C276.598 388.058 275.742 387.853 274.765 387.853C273.745 387.853 272.843 388.078 272.054 388.526C271.277 388.965 270.667 389.557 270.227 390.305C269.785 391.042 269.559 391.864 269.549 392.771V396.522C269.549 397.657 269.77 398.638 270.211 399.466C270.662 400.292 271.298 400.93 272.118 401.379C272.936 401.827 273.909 402.051 275.032 402.051C275.778 402.051 276.461 401.952 277.081 401.753C277.7 401.553 278.231 401.254 278.672 400.856C279.113 400.457 279.45 399.969 279.681 399.391L285.889 399.779C285.574 401.194 284.928 402.43 283.95 403.486C282.984 404.532 281.734 405.349 280.2 405.937C278.677 406.515 276.918 406.804 274.922 406.804Z" fill="white"/>
</svg>
